<?xml version="1.0" encoding="utf-8"?>
<!-- Generator: Adobe Illustrator 24.1.1, SVG Export Plug-In . SVG Version: 6.00 Build 0)  -->
<svg version="1.1" id="Ebene_1" xmlns="http://www.w3.org/2000/svg" xmlns:xlink="http://www.w3.org/1999/xlink" x="0px" y="0px"
	 viewBox="0 0 126.19 132.51" style="enable-background:new 0 0 126.19 132.51;" xml:space="preserve">
<style type="text/css">
	.st0{opacity:0.25;fill:#FFED00;}
</style>
<rect x="-0.96" y="-1.8" class="st0" width="128.11" height="135.84"/>
<g>
	<path d="M91.76,38.09c0.04,4.44-0.8,8.9-2.47,13.04c-1.65,4.14-4.03,8.03-7.14,11.3c-3.09,3.28-6.77,6.08-10.94,8.01
		c-4.15,1.95-8.74,3.08-13.4,3.3c-9.32,0.45-19.02-2.94-26.08-9.58c-3.48-3.33-6.4-7.34-8.31-11.83c-1.91-4.49-2.92-9.36-2.96-14.25
		c0.05-4.88,1.05-9.76,2.96-14.24c1.93-4.48,4.83-8.5,8.31-11.83C38.8,5.41,48.49,2.01,57.81,2.45c4.66,0.22,9.25,1.34,13.4,3.3
		c4.17,1.93,7.85,4.73,10.94,8c3.11,3.27,5.49,7.16,7.14,11.3C90.96,29.19,91.79,33.65,91.76,38.09z M91.36,38.09
		c-0.02-4.39-0.89-8.78-2.58-12.83c-1.68-4.05-4.18-7.76-7.28-10.86c-3.11-3.09-6.83-5.57-10.88-7.24
		c-4.05-1.67-8.43-2.53-12.81-2.53c-4.38,0.02-8.75,0.89-12.79,2.57c-4.04,1.68-7.74,4.17-10.83,7.26
		c-3.08,3.1-5.55,6.81-7.22,10.85c-1.67,4.04-2.52,8.4-2.52,12.77c0,4.37,0.85,8.73,2.52,12.77c1.66,4.04,4.13,7.75,7.22,10.85
		c3.09,3.1,6.79,5.58,10.83,7.26c4.04,1.69,8.41,2.55,12.79,2.57c4.38,0,8.76-0.85,12.81-2.52c4.05-1.67,7.77-4.14,10.88-7.24
		c3.11-3.1,5.6-6.81,7.28-10.86C90.47,46.87,91.34,42.49,91.36,38.09z"/>
</g>
<g>
	<path d="M0.96,71.67c0,0,0.45-0.33,1.29-0.96c0.85-0.62,2.06-1.56,3.66-2.68c1.59-1.13,3.51-2.52,5.75-4.04
		c2.23-1.54,4.75-3.28,7.54-5.11c2.78-1.85,5.79-3.85,9.02-5.88c3.22-2.05,6.6-4.24,10.16-6.39c3.56-2.16,7.18-4.48,10.97-6.66
		c3.76-2.22,7.59-4.47,11.41-6.72c3.86-2.18,7.73-4.37,11.53-6.52c3.79-2.17,7.61-4.16,11.26-6.16c3.64-2.01,7.23-3.84,10.62-5.6
		c3.38-1.78,6.61-3.39,9.6-4.87c2.98-1.5,5.74-2.82,8.19-3.98c2.44-1.18,4.6-2.15,6.38-2.96c1.77-0.82,3.19-1.4,4.15-1.83
		c0.96-0.42,1.47-0.64,1.47-0.64l0.2,0.35c0,0-30.7,17.84-61.4,35.67c-30.8,17.66-61.6,35.33-61.6,35.33L0.96,71.67z"/>
</g>
<g>
	<path d="M45.22,19.72c0,0,0.17,0.1,0.48,0.29c0.3,0.2,0.77,0.48,1.3,0.88c0.54,0.39,1.21,0.86,1.92,1.44
		c0.73,0.57,1.54,1.21,2.37,1.96c0.85,0.73,1.76,1.54,2.66,2.44c0.91,0.89,1.89,1.81,2.83,2.83c0.95,1.01,1.91,2.06,2.84,3.17
		c0.95,1.09,1.86,2.24,2.78,3.39c0.89,1.17,1.79,2.33,2.62,3.52c0.85,1.17,1.64,2.36,2.39,3.52c0.76,1.15,1.43,2.32,2.07,3.42
		c0.66,1.08,1.22,2.16,1.73,3.16c0.53,0.98,0.96,1.93,1.34,2.77c0.4,0.83,0.69,1.59,0.94,2.21c0.26,0.61,0.42,1.13,0.54,1.47
		c0.11,0.35,0.17,0.54,0.17,0.54l-0.31,0.25c0,0-1.85-2.29-4.62-5.71c-2.74-3.45-6.39-8.06-10.04-12.66
		c-3.6-4.65-7.2-9.29-9.9-12.78c-2.67-3.51-4.45-5.85-4.45-5.85L45.22,19.72z"/>
</g>
<g>
	<path d="M58.01,71.84c0,0,0.07,0.23,0.2,0.66c0.11,0.43,0.31,1.07,0.48,1.87c0.18,0.81,0.43,1.79,0.62,2.91
		c0.22,1.12,0.46,2.39,0.65,3.77c0.22,1.38,0.44,2.88,0.59,4.47c0.17,1.58,0.37,3.26,0.46,4.98c0.09,1.73,0.27,3.51,0.3,5.33
		c0.08,1.81,0.08,3.66,0.1,5.5c-0.02,1.84-0.03,3.69-0.11,5.5c-0.04,1.81-0.21,3.6-0.31,5.33c-0.08,1.73-0.29,3.4-0.46,4.98
		c-0.15,1.58-0.37,3.08-0.59,4.47c-0.19,1.38-0.43,2.65-0.65,3.77c-0.2,1.12-0.44,2.1-0.62,2.91c-0.17,0.81-0.37,1.44-0.48,1.87
		c-0.13,0.43-0.19,0.66-0.19,0.66h-0.4c0,0-0.04-3.69-0.11-9.22c-0.03-5.53-0.06-12.91-0.09-20.28c0.03-7.38,0.07-14.75,0.09-20.28
		c0.06-5.53,0.11-9.22,0.11-9.22H58.01z"/>
</g>
<g>
	<path d="M3.06,130.64c0,0,0.46-0.06,1.31-0.18c0.85-0.11,2.1-0.32,3.7-0.49c1.59-0.18,3.53-0.43,5.75-0.62
		c2.22-0.22,4.72-0.46,7.45-0.65c2.73-0.22,5.69-0.44,8.82-0.59c3.13-0.17,6.43-0.37,9.84-0.46c3.41-0.09,6.94-0.29,10.52-0.29
		c3.58-0.04,7.22-0.08,10.86-0.11c3.64,0.04,7.28,0.08,10.86,0.12c3.58,0.01,7.11,0.2,10.52,0.29c3.41,0.08,6.71,0.29,9.84,0.46
		c3.13,0.15,6.09,0.37,8.82,0.59c2.73,0.18,5.23,0.43,7.45,0.65c2.22,0.2,4.15,0.44,5.75,0.62c1.59,0.17,2.84,0.38,3.7,0.49
		c0.85,0.12,1.31,0.18,1.31,0.18v0.4c0,0-29.13,0.1-58.25,0.2c-29.13-0.1-58.25-0.2-58.25-0.2V130.64z"/>
</g>
</svg>
